<svg xmlns="http://www.w3.org/2000/svg" viewBox="0 0 256 256" shape-rendering="crispEdges">
<rect x="24" y="0" width="16" height="8" fill="#8c6cc3"/>
<rect x="40" y="0" width="8" height="8" fill="#ac7fc6"/>
<rect x="48" y="0" width="24" height="8" fill="#8c6cc3"/>
<rect x="72" y="0" width="32" height="8" fill="#ac7fc6"/>
<rect x="104" y="0" width="8" height="8" fill="#cc92c9"/>
<rect x="112" y="0" width="32" height="8" fill="#ac7fc6"/>
<rect x="144" y="0" width="72" height="8" fill="#cc92c9"/>
<rect x="216" y="0" width="16" height="8" fill="#eca5cc"/>
<rect x="16" y="8" width="16" height="8" fill="#8c6cc3"/>
<rect x="32" y="8" width="8" height="8" fill="#ac7fc6"/>
<rect x="40" y="8" width="24" height="8" fill="#8c6cc3"/>
<rect x="64" y="8" width="32" height="8" fill="#ac7fc6"/>
<rect x="96" y="8" width="8" height="8" fill="#cc92c9"/>
<rect x="104" y="8" width="32" height="8" fill="#ac7fc6"/>
<rect x="136" y="8" width="72" height="8" fill="#cc92c9"/>
<rect x="208" y="8" width="32" height="8" fill="#eca5cc"/>
<rect x="8" y="16" width="16" height="8" fill="#8c6cc3"/>
<rect x="24" y="16" width="8" height="8" fill="#ac7fc6"/>
<rect x="32" y="16" width="24" height="8" fill="#8c6cc3"/>
<rect x="56" y="16" width="32" height="8" fill="#ac7fc6"/>
<rect x="88" y="16" width="8" height="8" fill="#cc92c9"/>
<rect x="96" y="16" width="32" height="8" fill="#ac7fc6"/>
<rect x="128" y="16" width="72" height="8" fill="#cc92c9"/>
<rect x="200" y="16" width="32" height="8" fill="#eca5cc"/>
<rect x="232" y="16" width="8" height="8" fill="#f1b5b7"/>
<rect x="240" y="16" width="8" height="8" fill="#eca5cc"/>
<rect x="0" y="24" width="16" height="8" fill="#8c6cc3"/>
<rect x="16" y="24" width="8" height="8" fill="#ac7fc6"/>
<rect x="24" y="24" width="24" height="8" fill="#8c6cc3"/>
<rect x="48" y="24" width="32" height="8" fill="#ac7fc6"/>
<rect x="80" y="24" width="8" height="8" fill="#cc92c9"/>
<rect x="88" y="24" width="32" height="8" fill="#ac7fc6"/>
<rect x="120" y="24" width="72" height="8" fill="#cc92c9"/>
<rect x="192" y="24" width="32" height="8" fill="#eca5cc"/>
<rect x="224" y="24" width="8" height="8" fill="#f1b5b7"/>
<rect x="232" y="24" width="24" height="8" fill="#eca5cc"/>
<rect x="0" y="32" width="8" height="8" fill="#8c6cc3"/>
<rect x="8" y="32" width="8" height="8" fill="#ac7fc6"/>
<rect x="16" y="32" width="24" height="8" fill="#8c6cc3"/>
<rect x="40" y="32" width="32" height="8" fill="#ac7fc6"/>
<rect x="72" y="32" width="8" height="8" fill="#cc92c9"/>
<rect x="80" y="32" width="32" height="8" fill="#ac7fc6"/>
<rect x="112" y="32" width="72" height="8" fill="#cc92c9"/>
<rect x="184" y="32" width="32" height="8" fill="#eca5cc"/>
<rect x="216" y="32" width="8" height="8" fill="#f1b5b7"/>
<rect x="224" y="32" width="32" height="8" fill="#eca5cc"/>
<rect x="0" y="40" width="8" height="8" fill="#ac7fc6"/>
<rect x="8" y="40" width="24" height="8" fill="#8c6cc3"/>
<rect x="32" y="40" width="32" height="8" fill="#ac7fc6"/>
<rect x="64" y="40" width="8" height="8" fill="#cc92c9"/>
<rect x="72" y="40" width="32" height="8" fill="#ac7fc6"/>
<rect x="104" y="40" width="72" height="8" fill="#cc92c9"/>
<rect x="176" y="40" width="32" height="8" fill="#eca5cc"/>
<rect x="208" y="40" width="8" height="8" fill="#f1b5b7"/>
<rect x="216" y="40" width="32" height="8" fill="#eca5cc"/>
<rect x="248" y="40" width="8" height="8" fill="#f1b5b7"/>
<rect x="0" y="48" width="24" height="8" fill="#8c6cc3"/>
<rect x="24" y="48" width="32" height="8" fill="#ac7fc6"/>
<rect x="56" y="48" width="8" height="8" fill="#cc92c9"/>
<rect x="64" y="48" width="32" height="8" fill="#ac7fc6"/>
<rect x="96" y="48" width="72" height="8" fill="#cc92c9"/>
<rect x="168" y="48" width="32" height="8" fill="#eca5cc"/>
<rect x="200" y="48" width="8" height="8" fill="#f1b5b7"/>
<rect x="208" y="48" width="32" height="8" fill="#eca5cc"/>
<rect x="240" y="48" width="16" height="8" fill="#f1b5b7"/>
<rect x="0" y="56" width="16" height="8" fill="#8c6cc3"/>
<rect x="16" y="56" width="32" height="8" fill="#ac7fc6"/>
<rect x="48" y="56" width="8" height="8" fill="#cc92c9"/>
<rect x="56" y="56" width="32" height="8" fill="#ac7fc6"/>
<rect x="88" y="56" width="72" height="8" fill="#cc92c9"/>
<rect x="160" y="56" width="32" height="8" fill="#eca5cc"/>
<rect x="192" y="56" width="8" height="8" fill="#f1b5b7"/>
<rect x="200" y="56" width="32" height="8" fill="#eca5cc"/>
<rect x="232" y="56" width="24" height="8" fill="#f1b5b7"/>
<rect x="0" y="64" width="8" height="8" fill="#8c6cc3"/>
<rect x="8" y="64" width="32" height="8" fill="#ac7fc6"/>
<rect x="40" y="64" width="8" height="8" fill="#cc92c9"/>
<rect x="48" y="64" width="32" height="8" fill="#ac7fc6"/>
<rect x="80" y="64" width="72" height="8" fill="#cc92c9"/>
<rect x="152" y="64" width="32" height="8" fill="#eca5cc"/>
<rect x="184" y="64" width="8" height="8" fill="#f1b5b7"/>
<rect x="192" y="64" width="32" height="8" fill="#eca5cc"/>
<rect x="224" y="64" width="32" height="8" fill="#f1b5b7"/>
<rect x="0" y="72" width="32" height="8" fill="#ac7fc6"/>
<rect x="32" y="72" width="8" height="8" fill="#cc92c9"/>
<rect x="40" y="72" width="32" height="8" fill="#ac7fc6"/>
<rect x="72" y="72" width="72" height="8" fill="#cc92c9"/>
<rect x="144" y="72" width="32" height="8" fill="#eca5cc"/>
<rect x="176" y="72" width="8" height="8" fill="#f1b5b7"/>
<rect x="184" y="72" width="32" height="8" fill="#eca5cc"/>
<rect x="216" y="72" width="40" height="8" fill="#f1b5b7"/>
<rect x="0" y="80" width="24" height="8" fill="#ac7fc6"/>
<rect x="24" y="80" width="8" height="8" fill="#cc92c9"/>
<rect x="32" y="80" width="32" height="8" fill="#ac7fc6"/>
<rect x="64" y="80" width="72" height="8" fill="#cc92c9"/>
<rect x="136" y="80" width="32" height="8" fill="#eca5cc"/>
<rect x="168" y="80" width="8" height="8" fill="#f1b5b7"/>
<rect x="176" y="80" width="32" height="8" fill="#eca5cc"/>
<rect x="208" y="80" width="48" height="8" fill="#f1b5b7"/>
<rect x="0" y="88" width="16" height="8" fill="#ac7fc6"/>
<rect x="16" y="88" width="8" height="8" fill="#cc92c9"/>
<rect x="24" y="88" width="32" height="8" fill="#ac7fc6"/>
<rect x="56" y="88" width="72" height="8" fill="#cc92c9"/>
<rect x="128" y="88" width="32" height="8" fill="#eca5cc"/>
<rect x="160" y="88" width="8" height="8" fill="#f1b5b7"/>
<rect x="168" y="88" width="32" height="8" fill="#eca5cc"/>
<rect x="200" y="88" width="56" height="8" fill="#f1b5b7"/>
<rect x="0" y="96" width="8" height="8" fill="#ac7fc6"/>
<rect x="8" y="96" width="8" height="8" fill="#cc92c9"/>
<rect x="16" y="96" width="32" height="8" fill="#ac7fc6"/>
<rect x="48" y="96" width="72" height="8" fill="#cc92c9"/>
<rect x="120" y="96" width="32" height="8" fill="#eca5cc"/>
<rect x="152" y="96" width="8" height="8" fill="#f1b5b7"/>
<rect x="160" y="96" width="32" height="8" fill="#eca5cc"/>
<rect x="192" y="96" width="64" height="8" fill="#f1b5b7"/>
<rect x="0" y="104" width="8" height="8" fill="#cc92c9"/>
<rect x="8" y="104" width="32" height="8" fill="#ac7fc6"/>
<rect x="40" y="104" width="72" height="8" fill="#cc92c9"/>
<rect x="112" y="104" width="32" height="8" fill="#eca5cc"/>
<rect x="144" y="104" width="8" height="8" fill="#f1b5b7"/>
<rect x="152" y="104" width="32" height="8" fill="#eca5cc"/>
<rect x="184" y="104" width="72" height="8" fill="#f1b5b7"/>
<rect x="0" y="112" width="32" height="8" fill="#ac7fc6"/>
<rect x="32" y="112" width="72" height="8" fill="#cc92c9"/>
<rect x="104" y="112" width="32" height="8" fill="#eca5cc"/>
<rect x="136" y="112" width="8" height="8" fill="#f1b5b7"/>
<rect x="144" y="112" width="32" height="8" fill="#eca5cc"/>
<rect x="176" y="112" width="72" height="8" fill="#f1b5b7"/>
<rect x="248" y="112" width="8" height="8" fill="#f2c59f"/>
<rect x="0" y="120" width="24" height="8" fill="#ac7fc6"/>
<rect x="24" y="120" width="72" height="8" fill="#cc92c9"/>
<rect x="96" y="120" width="32" height="8" fill="#eca5cc"/>
<rect x="128" y="120" width="8" height="8" fill="#f1b5b7"/>
<rect x="136" y="120" width="32" height="8" fill="#eca5cc"/>
<rect x="168" y="120" width="72" height="8" fill="#f1b5b7"/>
<rect x="240" y="120" width="16" height="8" fill="#f2c59f"/>
<rect x="0" y="128" width="16" height="8" fill="#ac7fc6"/>
<rect x="16" y="128" width="72" height="8" fill="#cc92c9"/>
<rect x="88" y="128" width="32" height="8" fill="#eca5cc"/>
<rect x="120" y="128" width="8" height="8" fill="#f1b5b7"/>
<rect x="128" y="128" width="32" height="8" fill="#eca5cc"/>
<rect x="160" y="128" width="72" height="8" fill="#f1b5b7"/>
<rect x="232" y="128" width="24" height="8" fill="#f2c59f"/>
<rect x="0" y="136" width="8" height="8" fill="#ac7fc6"/>
<rect x="8" y="136" width="72" height="8" fill="#cc92c9"/>
<rect x="80" y="136" width="32" height="8" fill="#eca5cc"/>
<rect x="112" y="136" width="8" height="8" fill="#f1b5b7"/>
<rect x="120" y="136" width="32" height="8" fill="#eca5cc"/>
<rect x="152" y="136" width="72" height="8" fill="#f1b5b7"/>
<rect x="224" y="136" width="32" height="8" fill="#f2c59f"/>
<rect x="0" y="144" width="72" height="8" fill="#cc92c9"/>
<rect x="72" y="144" width="32" height="8" fill="#eca5cc"/>
<rect x="104" y="144" width="8" height="8" fill="#f1b5b7"/>
<rect x="112" y="144" width="32" height="8" fill="#eca5cc"/>
<rect x="144" y="144" width="72" height="8" fill="#f1b5b7"/>
<rect x="216" y="144" width="32" height="8" fill="#f2c59f"/>
<rect x="248" y="144" width="8" height="8" fill="#f3d486"/>
<rect x="0" y="152" width="64" height="8" fill="#cc92c9"/>
<rect x="64" y="152" width="32" height="8" fill="#eca5cc"/>
<rect x="96" y="152" width="8" height="8" fill="#f1b5b7"/>
<rect x="104" y="152" width="32" height="8" fill="#eca5cc"/>
<rect x="136" y="152" width="72" height="8" fill="#f1b5b7"/>
<rect x="208" y="152" width="32" height="8" fill="#f2c59f"/>
<rect x="240" y="152" width="8" height="8" fill="#f3d486"/>
<rect x="248" y="152" width="8" height="8" fill="#f2c59f"/>
<rect x="0" y="160" width="56" height="8" fill="#cc92c9"/>
<rect x="56" y="160" width="32" height="8" fill="#eca5cc"/>
<rect x="88" y="160" width="8" height="8" fill="#f1b5b7"/>
<rect x="96" y="160" width="32" height="8" fill="#eca5cc"/>
<rect x="128" y="160" width="72" height="8" fill="#f1b5b7"/>
<rect x="200" y="160" width="32" height="8" fill="#f2c59f"/>
<rect x="232" y="160" width="8" height="8" fill="#f3d486"/>
<rect x="240" y="160" width="16" height="8" fill="#f2c59f"/>
<rect x="0" y="168" width="48" height="8" fill="#cc92c9"/>
<rect x="48" y="168" width="32" height="8" fill="#eca5cc"/>
<rect x="80" y="168" width="8" height="8" fill="#f1b5b7"/>
<rect x="88" y="168" width="32" height="8" fill="#eca5cc"/>
<rect x="120" y="168" width="72" height="8" fill="#f1b5b7"/>
<rect x="192" y="168" width="32" height="8" fill="#f2c59f"/>
<rect x="224" y="168" width="8" height="8" fill="#f3d486"/>
<rect x="232" y="168" width="24" height="8" fill="#f2c59f"/>
<rect x="0" y="176" width="40" height="8" fill="#cc92c9"/>
<rect x="40" y="176" width="32" height="8" fill="#eca5cc"/>
<rect x="72" y="176" width="8" height="8" fill="#f1b5b7"/>
<rect x="80" y="176" width="32" height="8" fill="#eca5cc"/>
<rect x="112" y="176" width="72" height="8" fill="#f1b5b7"/>
<rect x="184" y="176" width="32" height="8" fill="#f2c59f"/>
<rect x="216" y="176" width="8" height="8" fill="#f3d486"/>
<rect x="224" y="176" width="32" height="8" fill="#f2c59f"/>
<rect x="0" y="184" width="32" height="8" fill="#cc92c9"/>
<rect x="32" y="184" width="32" height="8" fill="#eca5cc"/>
<rect x="64" y="184" width="8" height="8" fill="#f1b5b7"/>
<rect x="72" y="184" width="32" height="8" fill="#eca5cc"/>
<rect x="104" y="184" width="72" height="8" fill="#f1b5b7"/>
<rect x="176" y="184" width="32" height="8" fill="#f2c59f"/>
<rect x="208" y="184" width="8" height="8" fill="#f3d486"/>
<rect x="216" y="184" width="32" height="8" fill="#f2c59f"/>
<rect x="248" y="184" width="8" height="8" fill="#f3d486"/>
<rect x="0" y="192" width="24" height="8" fill="#cc92c9"/>
<rect x="24" y="192" width="32" height="8" fill="#eca5cc"/>
<rect x="56" y="192" width="8" height="8" fill="#f1b5b7"/>
<rect x="64" y="192" width="32" height="8" fill="#eca5cc"/>
<rect x="96" y="192" width="72" height="8" fill="#f1b5b7"/>
<rect x="168" y="192" width="32" height="8" fill="#f2c59f"/>
<rect x="200" y="192" width="8" height="8" fill="#f3d486"/>
<rect x="208" y="192" width="32" height="8" fill="#f2c59f"/>
<rect x="240" y="192" width="16" height="8" fill="#f3d486"/>
<rect x="0" y="200" width="16" height="8" fill="#cc92c9"/>
<rect x="16" y="200" width="32" height="8" fill="#eca5cc"/>
<rect x="48" y="200" width="8" height="8" fill="#f1b5b7"/>
<rect x="56" y="200" width="32" height="8" fill="#eca5cc"/>
<rect x="88" y="200" width="72" height="8" fill="#f1b5b7"/>
<rect x="160" y="200" width="32" height="8" fill="#f2c59f"/>
<rect x="192" y="200" width="8" height="8" fill="#f3d486"/>
<rect x="200" y="200" width="32" height="8" fill="#f2c59f"/>
<rect x="232" y="200" width="24" height="8" fill="#f3d486"/>
<rect x="0" y="208" width="8" height="8" fill="#cc92c9"/>
<rect x="8" y="208" width="32" height="8" fill="#eca5cc"/>
<rect x="40" y="208" width="8" height="8" fill="#f1b5b7"/>
<rect x="48" y="208" width="32" height="8" fill="#eca5cc"/>
<rect x="80" y="208" width="72" height="8" fill="#f1b5b7"/>
<rect x="152" y="208" width="32" height="8" fill="#f2c59f"/>
<rect x="184" y="208" width="8" height="8" fill="#f3d486"/>
<rect x="192" y="208" width="32" height="8" fill="#f2c59f"/>
<rect x="224" y="208" width="32" height="8" fill="#f3d486"/>
<rect x="0" y="216" width="32" height="8" fill="#eca5cc"/>
<rect x="32" y="216" width="8" height="8" fill="#f1b5b7"/>
<rect x="40" y="216" width="32" height="8" fill="#eca5cc"/>
<rect x="72" y="216" width="72" height="8" fill="#f1b5b7"/>
<rect x="144" y="216" width="32" height="8" fill="#f2c59f"/>
<rect x="176" y="216" width="8" height="8" fill="#f3d486"/>
<rect x="184" y="216" width="32" height="8" fill="#f2c59f"/>
<rect x="216" y="216" width="40" height="8" fill="#f3d486"/>
<rect x="0" y="224" width="24" height="8" fill="#eca5cc"/>
<rect x="24" y="224" width="8" height="8" fill="#f1b5b7"/>
<rect x="32" y="224" width="32" height="8" fill="#eca5cc"/>
<rect x="64" y="224" width="72" height="8" fill="#f1b5b7"/>
<rect x="136" y="224" width="32" height="8" fill="#f2c59f"/>
<rect x="168" y="224" width="8" height="8" fill="#f3d486"/>
<rect x="176" y="224" width="32" height="8" fill="#f2c59f"/>
<rect x="208" y="224" width="48" height="8" fill="#f3d486"/>
<rect x="8" y="232" width="8" height="8" fill="#eca5cc"/>
<rect x="16" y="232" width="8" height="8" fill="#f1b5b7"/>
<rect x="24" y="232" width="32" height="8" fill="#eca5cc"/>
<rect x="56" y="232" width="72" height="8" fill="#f1b5b7"/>
<rect x="128" y="232" width="32" height="8" fill="#f2c59f"/>
<rect x="160" y="232" width="8" height="8" fill="#f3d486"/>
<rect x="168" y="232" width="32" height="8" fill="#f2c59f"/>
<rect x="200" y="232" width="48" height="8" fill="#f3d486"/>
<rect x="16" y="240" width="32" height="8" fill="#eca5cc"/>
<rect x="48" y="240" width="72" height="8" fill="#f1b5b7"/>
<rect x="120" y="240" width="32" height="8" fill="#f2c59f"/>
<rect x="152" y="240" width="8" height="8" fill="#f3d486"/>
<rect x="160" y="240" width="32" height="8" fill="#f2c59f"/>
<rect x="192" y="240" width="48" height="8" fill="#f3d486"/>
<rect x="24" y="248" width="16" height="8" fill="#eca5cc"/>
<rect x="40" y="248" width="72" height="8" fill="#f1b5b7"/>
<rect x="112" y="248" width="32" height="8" fill="#f2c59f"/>
<rect x="144" y="248" width="8" height="8" fill="#f3d486"/>
<rect x="152" y="248" width="32" height="8" fill="#f2c59f"/>
<rect x="184" y="248" width="48" height="8" fill="#f3d486"/>
</svg>
